<?xml version="1.0" encoding="utf-8"?>
<!-- Generator: Adobe Illustrator 28.0.0, SVG Export Plug-In . SVG Version: 6.00 Build 0)  -->
<svg version="1.1" id="Слой_1" xmlns="http://www.w3.org/2000/svg" xmlns:xlink="http://www.w3.org/1999/xlink" x="0px" y="0px"
	 viewBox="0 0 1000 1000" enable-background="new 0 0 1000 1000" xml:space="preserve">
<rect fill="#0056FF" width="1000" height="1000"/>
<g>
	<g transform="translate(-55 -103)">
		<path fill="#FFFFFF" d="M417.4599609,387.5377197c17.6512146-0.3277283,35.2772522,1.4819031,52.4936218,5.3894653
			c14.4955139,3.1647644,28.2580261,9.053833,40.5559387,17.354187
			c11.3579102,8.2537537,20.3447266,19.3501587,26.0581665,32.1752625
			c6.5663452,15.7706299,9.7342529,32.7484131,9.296875,49.8258362c0.7457886,18.7512817-4.0432129,37.3074341-13.7701416,53.355957
			c-10.2327881,15.1573486-24.3772888,27.2625732-40.9331665,35.0316772
			c22.4673462,6.0571289,42.0365601,19.9313965,55.1883545,39.1277466
			c12.6255493,20.3399048,18.9714355,43.9518433,18.2434692,67.8806152
			c0.4164429,19.0785522-3.5283203,38.0003052-11.5335083,55.3231201
			c-7.3995972,15.1115723-18.2341309,28.2809448-31.6363525,38.4540405
			c-13.7982483,10.0612793-29.325592,17.505249-45.8106689,21.9621582
			c-17.0954285,4.7293701-34.7561035,7.1046753-52.4936218,7.0602417H228.3696442V387.5377197H417.4599609z
			 M406.2228394,558.6001587c13.8687744,0.5716553,27.5210266-3.5800781,38.7235107-11.776062
			c10.8789978-9.6848145,16.5351868-23.9452515,15.2522583-38.4539795
			c0.3590088-8.356842-1.3049927-16.6768188-4.8505554-24.2527161c-3.0076904-6.0319214-7.6842957-11.0732422-13.4737244-14.5246887
			c-5.8639221-3.7991943-12.4521179-6.3408508-19.3482666-7.464447c-7.4824524-1.4494629-15.0964661-2.1088257-22.7167053-1.9671631
			h-83.2137451v98.8163147h89.6272278V558.6001587z M411.0733948,738.6630859
			c8.387207,0.1134644,16.7572327-0.7913818,24.9263916-2.6947632c7.4654236-1.6487427,14.5456238-4.7131348,20.8573303-9.0274048
			c6.1833191-4.3118896,11.1789856-10.1139526,14.5246887-16.8691406c3.879303-8.6134644,5.6616211-18.0238647,5.2008362-27.4594116
			c1.7044983-17.4254761-4.7529297-34.6585693-17.4888916-46.6730347
			c-13.3200989-9.810791-29.6438599-14.6707153-46.1610107-13.7432251h-96.3371277v116.4669189L411.0733948,738.6630859z"/>
		<path fill="#FFFFFF" d="M690.2490234,737.1000366c13.9940796,12.9708252,32.696228,19.6334839,51.7390747,18.4320679
			c14.9383545,0.3773804,29.5864258-4.1676636,41.6876221-12.9347534
			c9.8446045-6.401123,17.2998047-15.8741455,21.2077026-26.9474487h70.3598633
			c-7.496582,31.5238647-25.8039551,59.4235229-51.7390747,78.8482056
			c-24.8804321,16.5141602-54.2828979,24.8772583-84.1300049,23.9293823
			c-21.3023071,0.2793579-42.4434204-3.7252808-62.1677856-11.776062
			c-17.8423462-7.44104-33.8446655-18.6885986-46.8884888-32.9567261
			c-12.9949341-14.9509277-22.9779053-32.2723999-29.3997803-51.0115967
			c-7.2084961-20.946167-10.7368774-42.9822388-10.4287109-65.131958
			c-0.1313477-21.7783813,3.515625-43.4144287,10.7790527-63.9462891
			c20.0187378-59.2576904,75.9400024-98.8671265,138.4829712-98.0887451
			c22.5076904-0.470459,44.7647095,4.7970276,64.6739502,15.3061829
			c17.9963379,9.8682556,33.520874,23.688385,45.4063721,40.4211731
			c12.157959,17.5578003,20.8726196,37.263855,25.6810303,58.0717773
			c5.2731934,22.3439331,7.1535645,45.3543091,5.578125,68.2579346H671.5205688
			C669.8223877,699.0917358,676.5360107,720.4301147,690.2490234,737.1000366z M782.1938477,576.2506714
			c-11.8654175-11.868103-28.286499-18.0199585-45.0291748-16.8691406
			c-10.9782104-0.4186401-21.8777466,2.0137329-31.6364136,7.0602417
			c-7.7364502,4.2589722-14.5654297,9.989502-20.1028442,16.8690796
			c-4.9072876,6.4501343-8.5631714,13.762146-10.7790527,21.5579224c-1.99646,6.50177-3.2442017,13.2102661-3.71875,19.9950562
			h129.8059692c-1.1309814-17.6869507-7.5738525-34.6207275-18.4859009-48.5861816L782.1938477,576.2506714z"/>
		<rect x="654.1934204" y="415.7785339" fill="#FFFFFF" width="162.6548462" height="41.5799255"/>
	</g>
</g>
</svg>
