<svg version="1.2" xmlns="http://www.w3.org/2000/svg" viewBox="0 0 100 100" width="100" height="100"><style>.a{fill:#fff}</style><path fill-rule="evenodd" class="a" d="m89 9v81h-81v-81z"/><path  d="m89.3 0h-78.6c-5.9 0-10.7 4.8-10.7 10.7v78.6c0 5.9 4.8 10.7 10.7 10.7h78.6c5.9 0 10.7-4.8 10.7-10.7v-78.6c0-5.9-4.8-10.7-10.7-10.7zm-27.4 85.6c-1.9 0.4-2.6-0.8-2.6-1.7 0-1.2 0.1-7.4 0.1-12.4 0-3.5-1.2-5.7-2.5-6.8 8.2-1 16.9-2.1 16.9-16.4 0-4-1.4-6-3.8-8.7 0.4-0.9 1.7-4.9-0.4-10-3.1-1-10.2 4-10.2 4-2.9-0.8-6.1-1.3-9.3-1.3-3.1 0-6.3 0.5-9.3 1.3 0 0-7-5-10.2-4-2 5.1-0.7 9.1-0.3 10-2.4 2.7-3.5 4.7-3.5 8.7 0 14.2 8.3 15.5 16.6 16.4-1.1 0.9-2.1 2.6-2.4 4.9-2.1 1-7.5 2.7-10.8-3.1-2-3.5-5.7-3.8-5.7-3.8-3.6 0-0.2 2.3-0.2 2.3 2.4 1.1 4.1 5.4 4.1 5.4 2.2 6.6 12.5 4.4 12.5 4.4 0 3.1 0.1 8.1 0.1 9.1 0 0.9-0.7 2.1-2.6 1.7-14.7-4.9-25.1-18.9-25.1-35.3 0-20.5 15.7-36 36.2-36 20.5 0 37.1 15.5 37.1 36 0 16.4-10 30.4-24.7 35.3zm-21.9-13.6c-0.4 0.1-0.8-0.1-0.9-0.4 0-0.3 0.3-0.6 0.7-0.7 0.4 0 0.8 0.1 0.9 0.4 0 0.3-0.3 0.6-0.7 0.7zm-2.1-0.2c0 0.3-0.4 0.5-0.8 0.5-0.5 0.1-0.8-0.2-0.8-0.5 0-0.3 0.3-0.5 0.8-0.5 0.4-0.1 0.8 0.2 0.8 0.5zm-3.1-0.2c-0.1 0.3-0.5 0.4-0.9 0.3-0.4-0.1-0.7-0.5-0.6-0.8 0.1-0.3 0.5-0.4 0.9-0.3 0.4 0.1 0.7 0.5 0.6 0.8zm-2.7-1.2c-0.2 0.2-0.6 0.2-1-0.2-0.3-0.3-0.4-0.7-0.2-0.9 0.2-0.2 0.6-0.2 1 0.1 0.3 0.3 0.4 0.8 0.2 1zm-2.1-2.1c-0.2 0.2-0.5 0-0.8-0.3-0.2-0.3-0.2-0.7 0-0.9 0.3-0.2 0.6 0 0.8 0.3 0.3 0.3 0.3 0.7 0 0.9zm-1.4-2.1c-0.2 0.2-0.5 0.1-0.8-0.2-0.2-0.3-0.3-0.6-0.1-0.8 0.2-0.2 0.6 0 0.8 0.2 0.3 0.3 0.3 0.6 0.1 0.8zm-1.5-1.7c-0.1 0.2-0.4 0.3-0.6 0.1-0.3-0.1-0.5-0.4-0.4-0.6 0.1-0.1 0.4-0.2 0.7-0.1 0.3 0.2 0.4 0.4 0.3 0.6z"/></svg>