<svg version="1.2" xmlns="http://www.w3.org/2000/svg" viewBox="240 295 160 144" width="160" height="144">
	<style>
		.s0 { fill: #97b067 } 
		.s1 { fill: none;stroke: #fcb53b;stroke-miterlimit:10;stroke-width: 5 } 
		.s2 { fill: #fcb53b } 
		.s3 { fill: #d4f6ff } 
		.s4 { fill: none;stroke: #8eaccd;stroke-miterlimit:10 } 
	</style>
	<g id="Layer 1">
	</g>
	<path id="Shape 1" fill-rule="evenodd" class="s0" d="m242 298l29-2c0 0-7.25 27.01-5 31 0 0 1.13 8.14 8 7 0 0 82.88-19.86 125 0l-4 9c0 0-41.25-19.74-121-2 0 0-21 3.74-17.38-17.01 0 0 2.38-14.61 6.13-21.88l-20.75 1.89z"/>
	<path id="Shape 3" fill-rule="evenodd" class="s0" d="m382.13 345.49c0 0-78-11.63-120.5 5.87 0 0 58-10.36 117.75 1.25z"/>
	<path id="Shape 3 copy" fill-rule="evenodd" class="s0" d="m375.83 360.38c0 0-73.41-9.74-113.05 7.34 0 0 54.3-10.61 110.58-0.61z"/>
	<path id="Shape 3 copy 2" fill-rule="evenodd" class="s0" d="m372.83 374.32c0 0-72.29-9.58-111.33 7.23 0 0 53.48-10.44 108.9-0.6z"/>
	<path id="Shape 4 copy" fill-rule="evenodd" class="s0" d="m347 333l-13 51 5.38 0.61 14.62-50.62z"/>
	<path id="Shape 4 copy 3" fill-rule="evenodd" class="s0" d="m326.1 330l-14.42 56.58 5.96 0.68 16.23-56.16z"/>
	<path id="Shape 4 copy 2" fill-rule="evenodd" class="s0" d="m368 335l-13 51 5.38 0.61 14.62-50.62z"/>
	<path id="Shape 5" fill-rule="evenodd" class="s0" d="m314 334l-15.4 46.2 8.21-46.2z"/>
	<path id="Shape 5 copy" fill-rule="evenodd" class="s0" d="m295.4 337l-15.4 46.2 8.21-46.2z"/>
	<path id="Shape 5 copy 2" fill-rule="evenodd" class="s0" d="m279.44 337l-12.44 37.32 6.63-37.32z"/>
	<path id="Shape 2 copy" fill-rule="evenodd" class="s0" d="m396 340.24l-17.5 42.76-8.63 0.74c0.01 0-5.49 0.75-15.85 6.02-12.51-0.88-44.97 0.65-44.97 0.65l-2.1-3.59c0 0 34.15-6.73 59.05-3.82l18.88-44.64z"/>
	<path id="Shape 6" fill-rule="evenodd" class="s1" d="m370.75 434c-14.24 0-25.75-11.51-25.75-25.75 0-14.24 11.51-25.75 25.75-25.75 14.24 0 25.75 11.51 25.75 25.75 0 14.24-11.51 25.75-25.75 25.75z"/>
	<path id="Shape 6 copy" fill-rule="evenodd" class="s1" d="m290.75 434c-14.24 0-25.75-11.51-25.75-25.75 0-14.24 11.51-25.75 25.75-25.75 14.24 0 25.75 11.51 25.75 25.75 0 14.24-11.51 25.75-25.75 25.75z"/>
	<path id="Shape 8" fill-rule="evenodd" class="s2" d="m318 401c0 0 1.73-1.67 4-2 2.27-0.33 4-4 4-4 0 0 1.56-3.22 5.17-3.25 4.44-0.04 5.58 3.58 5.58 3.58 0 0 1.09 2.75 2.73 3.14 3.29 0.76 4.52 2.53 4.52 2.53v9c0 0-5.31-4.87-13-5-7.69-0.13-13 5-13 5z"/>
	<path id="Shape 9" fill-rule="evenodd" class="s3" d="m325 403m-34 27c-12.17 0-22-9.83-22-22 0-12.17 9.83-22 22-22 12.17 0 22 9.83 22 22 0 12.17-9.83 22-22 22z"/>
	<path id="Shape 9 copy" fill-rule="evenodd" class="s3" d="m405 403m-34 27c-12.17 0-22-9.83-22-22 0-12.17 9.83-22 22-22 12.17 0 22 9.83 22 22 0 12.17-9.83 22-22 22z"/>
	<path id="Shape 10" fill-rule="evenodd" class="s4" d="m287 389c0 0-15 3.49-15 19"/>
	<path id="Shape 10 copy" fill-rule="evenodd" class="s4" d="m367 389c0 0-15 3.49-15 19"/>
</svg>